<?xml version="1.0" encoding="utf-8"?><svg xmlns="http://www.w3.org/2000/svg" xmlns:xlink="http://www.w3.org/1999/xlink" width="1366" height="625" preserveAspectRatio="xMidYMid" viewBox="0 0 1366 625" style="z-index:1;margin-right:-2px;display:block;background-repeat-y:initial;background-repeat-x:initial;animation-play-state:paused" ><g transform="translate(683,312.5) scale(1,1) translate(-683,-312.5)" style="transform:matrix(1, 0, 0, 1, 0, 0);animation-play-state:paused" ><path d="M6.83 -24.96565575538625L6.83 0Z" stroke-width="13.66" stroke-linecap="round" stroke-linejoin="round" stroke="#79681e" transform="matrix(1,0,0,1,0,149.01593017578125)" opacity="1" style="transform:matrix(1, 0, 0, 1, 0, 149.016);animation-play-state:paused" ></path>
<path d="M6.83 -17.37262032178478L6.83 0Z" stroke-width="13.66" stroke-linecap="round" stroke-linejoin="round" stroke="#cbbe6c" transform="matrix(1,0,0,1,0,224.1815643310547)" opacity="1" style="transform:matrix(1, 0, 0, 1, 0, 224.182);animation-play-state:paused" ></path>
<path d="M6.83 -72.09599906028234L6.83 0Z" stroke-width="13.66" stroke-linecap="round" stroke-linejoin="round" stroke="#ece3b2" transform="matrix(1,0,0,1,0,349.654296875)" opacity="0.761766" style="transform:matrix(1, 0, 0, 1, 0, 349.654);opacity:0.761766;animation-play-state:paused" ></path>
<path d="M34.15 -38.75297724821576L34.15 0Z" stroke-width="13.66" stroke-linecap="round" stroke-linejoin="round" stroke="#faf7ed" transform="matrix(1,0,0,1,0,392.0379333496094)" opacity="0.248025" style="transform:matrix(1, 0, 0, 1, 0, 392.038);opacity:0.248025;animation-play-state:paused" ></path>
<path d="M34.15 -23.34633702572137L34.15 0Z" stroke-width="13.66" stroke-linecap="round" stroke-linejoin="round" stroke="#faf7ed" transform="matrix(1,0,0,1,0,102.9616470336914)" opacity="1" style="transform:matrix(1, 0, 0, 1, 0, 102.962);animation-play-state:paused" ></path>
<path d="M34.15 -40.03857356660228L34.15 0Z" stroke-width="13.66" stroke-linecap="round" stroke-linejoin="round" stroke="#faf7ed" transform="matrix(1,0,0,1,0,352.8850402832031)" opacity="0.722606" style="transform:matrix(1, 0, 0, 1, 0, 352.885);opacity:0.722606;animation-play-state:paused" ></path>
<path d="M61.47 -69.93123847604511L61.47 0Z" stroke-width="13.66" stroke-linecap="round" stroke-linejoin="round" stroke="#cbbe6c" transform="matrix(1,0,0,1,0,144.87701416015625)" opacity="1" style="transform:matrix(1, 0, 0, 1, 0, 144.877);animation-play-state:paused" ></path>
<path d="M61.47 -97.98649655669215L61.47 0Z" stroke-width="13.66" stroke-linecap="round" stroke-linejoin="round" stroke="#cbbe6c" transform="matrix(1,0,0,1,0,260.5198059082031)" opacity="1" style="transform:matrix(1, 0, 0, 1, 0, 260.52);animation-play-state:paused" ></path>
<path d="M61.47 -26.58897872732632L61.47 0Z" stroke-width="13.66" stroke-linecap="round" stroke-linejoin="round" stroke="#faf7ed" transform="matrix(1,0,0,1,0,368.8242492675781)" opacity="0.529403" style="transform:matrix(1, 0, 0, 1, 0, 368.824);opacity:0.529403;animation-play-state:paused" ></path>
<path d="M88.79 -43.752442506243824L88.79 0Z" stroke-width="13.66" stroke-linecap="round" stroke-linejoin="round" stroke="#a49838" transform="matrix(1,0,0,1,0,158.19149780273438)" opacity="1" style="transform:matrix(1, 0, 0, 1, 0, 158.191);animation-play-state:paused" ></path>
<path d="M88.79 -43.64027290217928L88.79 0Z" stroke-width="13.66" stroke-linecap="round" stroke-linejoin="round" stroke="#cbbe6c" transform="matrix(1,0,0,1,0,330.8924865722656)" opacity="0.989182" style="transform:matrix(1, 0, 0, 1, 0, 330.892);opacity:0.989182;animation-play-state:paused" ></path>
<path d="M88.79 -58.01346282674058L88.79 0Z" stroke-width="13.66" stroke-linecap="round" stroke-linejoin="round" stroke="#79681e" transform="matrix(1,0,0,1,0,115.17647552490234)" opacity="1" style="transform:matrix(1, 0, 0, 1, 0, 115.176);animation-play-state:paused" ></path>
<path d="M116.11 -22.536544134953147L116.11 0Z" stroke-width="13.66" stroke-linecap="round" stroke-linejoin="round" stroke="#79681e" transform="matrix(1,0,0,1,0,263.8023681640625)" opacity="1" style="transform:matrix(1, 0, 0, 1, 0, 263.802);animation-play-state:paused" ></path>
<path d="M116.11 -66.03870579339855L116.11 0Z" stroke-width="13.66" stroke-linecap="round" stroke-linejoin="round" stroke="#79681e" transform="matrix(1,0,0,1,0,397.0295104980469)" opacity="0.187521" style="transform:matrix(1, 0, 0, 1, 0, 397.03);opacity:0.187521;animation-play-state:paused" ></path>
<path d="M116.11 -40.80348508129828L116.11 0Z" stroke-width="13.66" stroke-linecap="round" stroke-linejoin="round" stroke="#a49838" transform="matrix(1,0,0,1,0,194.1507110595703)" opacity="1" style="transform:matrix(1, 0, 0, 1, 0, 194.151);animation-play-state:paused" ></path>
<path d="M143.43 -7.789104324037908L143.43 0Z" stroke-width="13.66" stroke-linecap="round" stroke-linejoin="round" stroke="#faf7ed" transform="matrix(1,0,0,1,0,228.22256469726562)" opacity="1" style="transform:matrix(1, 0, 0, 1, 0, 228.223);animation-play-state:paused" ></path>
<path d="M143.43 -49.33502053784105L143.43 0Z" stroke-width="13.66" stroke-linecap="round" stroke-linejoin="round" stroke="#79681e" transform="matrix(1,0,0,1,0,307.21112060546875)" opacity="1" style="transform:matrix(1, 0, 0, 1, 0, 307.211);animation-play-state:paused" ></path>
<path d="M143.43 -48.34746680549142L143.43 0Z" stroke-width="13.66" stroke-linecap="round" stroke-linejoin="round" stroke="#79681e" transform="matrix(1,0,0,1,0,63.49336242675781)" opacity="1" style="transform:matrix(1, 0, 0, 1, 0, 63.4934);animation-play-state:paused" ></path>
<path d="M170.75000000000003 -46.59906625678852L170.75000000000003 0Z" stroke-width="13.66" stroke-linecap="round" stroke-linejoin="round" stroke="#faf7ed" transform="matrix(1,0,0,1,0,177.5719757080078)" opacity="1" style="transform:matrix(1, 0, 0, 1, 0, 177.572);animation-play-state:paused" ></path>
<path d="M170.75000000000003 -60.97371707803785L170.75000000000003 0Z" stroke-width="13.66" stroke-linecap="round" stroke-linejoin="round" stroke="#79681e" transform="matrix(1,0,0,1,0,249.62294006347656)" opacity="1" style="transform:matrix(1, 0, 0, 1, 0, 249.623);animation-play-state:paused" ></path>
<path d="M170.75000000000003 -69.36772577419651L170.75000000000003 0Z" stroke-width="13.66" stroke-linecap="round" stroke-linejoin="round" stroke="#a49838" transform="matrix(1,0,0,1,0,381.261474609375)" opacity="0.378649" style="transform:matrix(1, 0, 0, 1, 0, 381.261);opacity:0.378649;animation-play-state:paused" ></path>
<path d="M198.07000000000002 -33.97133843121628L198.07000000000002 0Z" stroke-width="13.66" stroke-linecap="round" stroke-linejoin="round" stroke="#cbbe6c" transform="matrix(1,0,0,1,0,153.22315979003906)" opacity="1" style="transform:matrix(1, 0, 0, 1, 0, 153.223);animation-play-state:paused" ></path>
<path d="M198.07000000000002 -12.432427280342381L198.07000000000002 0Z" stroke-width="13.66" stroke-linecap="round" stroke-linejoin="round" stroke="#79681e" transform="matrix(1,0,0,1,0,222.23060607910156)" opacity="1" style="transform:matrix(1, 0, 0, 1, 0, 222.231);animation-play-state:paused" ></path>
<path d="M198.07000000000002 -17.24877673922674L198.07000000000002 0Z" stroke-width="13.66" stroke-linecap="round" stroke-linejoin="round" stroke="#faf7ed" transform="matrix(1,0,0,1,0,297.5669250488281)" opacity="1" style="transform:matrix(1, 0, 0, 1, 0, 297.567);animation-play-state:paused" ></path>
<path d="M225.39000000000001 -23.888802144108922L225.39000000000001 0Z" stroke-width="13.66" stroke-linecap="round" stroke-linejoin="round" stroke="#a49838" transform="matrix(1,0,0,1,0,298.0528869628906)" opacity="1" style="transform:matrix(1, 0, 0, 1, 0, 298.053);animation-play-state:paused" ></path>
<path d="M225.39000000000001 -32.27852244240785L225.39000000000001 0Z" stroke-width="13.66" stroke-linecap="round" stroke-linejoin="round" stroke="#a49838" transform="matrix(1,0,0,1,0,344.2947998046875)" opacity="0.82673" style="transform:matrix(1, 0, 0, 1, 0, 344.295);opacity:0.82673;animation-play-state:paused" ></path>
<path d="M225.39000000000001 -15.598485019989312L225.39000000000001 0Z" stroke-width="13.66" stroke-linecap="round" stroke-linejoin="round" stroke="#79681e" transform="matrix(1,0,0,1,0,180.25994873046875)" opacity="1" style="transform:matrix(1, 0, 0, 1, 0, 180.26);animation-play-state:paused" ></path>
<path d="M252.71 -18.76131622027242L252.71 0Z" stroke-width="13.66" stroke-linecap="round" stroke-linejoin="round" stroke="#cbbe6c" transform="matrix(1,0,0,1,0,107.38023376464844)" opacity="1" style="transform:matrix(1, 0, 0, 1, 0, 107.38);animation-play-state:paused" ></path>
<path d="M252.71 -57.23058891216715L252.71 0Z" stroke-width="13.66" stroke-linecap="round" stroke-linejoin="round" stroke="#faf7ed" transform="matrix(1,0,0,1,0,92.84182739257812)" opacity="1" style="transform:matrix(1, 0, 0, 1, 0, 92.8418);animation-play-state:paused" ></path>
<path d="M252.71 -73.94365433252824L252.71 0Z" stroke-width="13.66" stroke-linecap="round" stroke-linejoin="round" stroke="#ece3b2" transform="matrix(1,0,0,1,0,308.3477783203125)" opacity="1" style="transform:matrix(1, 0, 0, 1, 0, 308.348);animation-play-state:paused" ></path>
<path d="M280.03 -17.35954276620396L280.03 0Z" stroke-width="13.66" stroke-linecap="round" stroke-linejoin="round" stroke="#79681e" transform="matrix(1,0,0,1,0,64.7288818359375)" opacity="1" style="transform:matrix(1, 0, 0, 1, 0, 64.7289);animation-play-state:paused" ></path>
<path d="M280.03 -78.0688946765622L280.03 0Z" stroke-width="13.66" stroke-linecap="round" stroke-linejoin="round" stroke="#a49838" transform="matrix(1,0,0,1,0,215.2473602294922)" opacity="1" style="transform:matrix(1, 0, 0, 1, 0, 215.247);animation-play-state:paused" ></path>
<path d="M280.03 -25.125771258721215L280.03 0Z" stroke-width="13.66" stroke-linecap="round" stroke-linejoin="round" stroke="#79681e" transform="matrix(1,0,0,1,0,202.21902465820312)" opacity="1" style="transform:matrix(1, 0, 0, 1, 0, 202.219);animation-play-state:paused" ></path>
<path d="M307.34999999999997 -48.51743343608541L307.34999999999997 0Z" stroke-width="13.66" stroke-linecap="round" stroke-linejoin="round" stroke="#faf7ed" transform="matrix(1,0,0,1,0,392.9823913574219)" opacity="0.236577" style="transform:matrix(1, 0, 0, 1, 0, 392.982);opacity:0.236577;animation-play-state:paused" ></path>
<path d="M307.34999999999997 -25.789787942800103L307.34999999999997 0Z" stroke-width="13.66" stroke-linecap="round" stroke-linejoin="round" stroke="#ece3b2" transform="matrix(1,0,0,1,0,37.09150314331055)" opacity="1" style="transform:matrix(1, 0, 0, 1, 0, 37.0915);animation-play-state:paused" ></path>
<path d="M307.34999999999997 -44.371161634335294L307.34999999999997 0Z" stroke-width="13.66" stroke-linecap="round" stroke-linejoin="round" stroke="#a49838" transform="matrix(1,0,0,1,0,127.9152603149414)" opacity="1" style="transform:matrix(1, 0, 0, 1, 0, 127.915);animation-play-state:paused" ></path>
<path d="M334.67 -18.223381359195628L334.67 0Z" stroke-width="13.66" stroke-linecap="round" stroke-linejoin="round" stroke="#a49838" transform="matrix(1,0,0,1,0,32.63534927368164)" opacity="1" style="transform:matrix(1, 0, 0, 1, 0, 32.6353);animation-play-state:paused" ></path>
<path d="M334.67 -37.11657363708491L334.67 0Z" stroke-width="13.66" stroke-linecap="round" stroke-linejoin="round" stroke="#a49838" transform="matrix(1,0,0,1,0,365.7497863769531)" opacity="0.566669" style="transform:matrix(1, 0, 0, 1, 0, 365.75);opacity:0.566669;animation-play-state:paused" ></path>
<path d="M334.67 -48.49527376889455L334.67 0Z" stroke-width="13.66" stroke-linecap="round" stroke-linejoin="round" stroke="#faf7ed" transform="matrix(1,0,0,1,0,172.87380981445312)" opacity="1" style="transform:matrix(1, 0, 0, 1, 0, 172.874);animation-play-state:paused" ></path>
<path d="M361.99 -22.646837881147803L361.99 0Z" stroke-width="13.66" stroke-linecap="round" stroke-linejoin="round" stroke="#cbbe6c" transform="matrix(1,0,0,1,0,38.43539047241211)" opacity="1" style="transform:matrix(1, 0, 0, 1, 0, 38.4354);animation-play-state:paused" ></path>
<path d="M361.99 -57.61775547113939L361.99 0Z" stroke-width="13.66" stroke-linecap="round" stroke-linejoin="round" stroke="#faf7ed" transform="matrix(1,0,0,1,0,44.63051986694336)" opacity="1" style="transform:matrix(1, 0, 0, 1, 0, 44.6305);animation-play-state:paused" ></path>
<path d="M361.99 -42.41354846809372L361.99 0Z" stroke-width="13.66" stroke-linecap="round" stroke-linejoin="round" stroke="#faf7ed" transform="matrix(1,0,0,1,0,253.40005493164062)" opacity="1" style="transform:matrix(1, 0, 0, 1, 0, 253.4);animation-play-state:paused" ></path>
<path d="M389.31 -51.77250112606998L389.31 0Z" stroke-width="13.66" stroke-linecap="round" stroke-linejoin="round" stroke="#cbbe6c" transform="matrix(1,0,0,1,0,40.89125061035156)" opacity="1" style="transform:matrix(1, 0, 0, 1, 0, 40.8913);animation-play-state:paused" ></path>
<path d="M389.31 -84.42279472950395L389.31 0Z" stroke-width="13.66" stroke-linecap="round" stroke-linejoin="round" stroke="#ece3b2" transform="matrix(1,0,0,1,0,144.39691162109375)" opacity="1" style="transform:matrix(1, 0, 0, 1, 0, 144.397);animation-play-state:paused" ></path>
<path d="M389.31 -75.1557271036545L389.31 0Z" stroke-width="13.66" stroke-linecap="round" stroke-linejoin="round" stroke="#79681e" transform="matrix(1,0,0,1,0,246.37535095214844)" opacity="1" style="transform:matrix(1, 0, 0, 1, 0, 246.375);animation-play-state:paused" ></path>
<path d="M416.63 -32.58032494350482L416.63 0Z" stroke-width="13.66" stroke-linecap="round" stroke-linejoin="round" stroke="#79681e" transform="matrix(1,0,0,1,0,298.40985107421875)" opacity="1" style="transform:matrix(1, 0, 0, 1, 0, 298.41);animation-play-state:paused" ></path>
<path d="M416.63 -58.13659164080309L416.63 0Z" stroke-width="13.66" stroke-linecap="round" stroke-linejoin="round" stroke="#a49838" transform="matrix(1,0,0,1,0,200.36253356933594)" opacity="1" style="transform:matrix(1, 0, 0, 1, 0, 200.363);animation-play-state:paused" ></path>
<path d="M416.63 -61.823266446517664L416.63 0Z" stroke-width="13.66" stroke-linecap="round" stroke-linejoin="round" stroke="#cbbe6c" transform="matrix(1,0,0,1,0,119.46891021728516)" opacity="1" style="transform:matrix(1, 0, 0, 1, 0, 119.469);animation-play-state:paused" ></path>
<path d="M443.95 -85.64241010254227L443.95 0Z" stroke-width="13.66" stroke-linecap="round" stroke-linejoin="round" stroke="#79681e" transform="matrix(1,0,0,1,0,10.17509651184082)" opacity="1" style="transform:matrix(1, 0, 0, 1, 0, 10.1751);animation-play-state:paused" ></path>
<path d="M443.95 -11.279059138953016L443.95 0Z" stroke-width="13.66" stroke-linecap="round" stroke-linejoin="round" stroke="#ece3b2" transform="matrix(1,0,0,1,0,184.56942749023438)" opacity="1" style="transform:matrix(1, 0, 0, 1, 0, 184.569);animation-play-state:paused" ></path>
<path d="M443.95 -12.649170725793738L443.95 0Z" stroke-width="13.66" stroke-linecap="round" stroke-linejoin="round" stroke="#faf7ed" transform="matrix(1,0,0,1,0,76.50422668457031)" opacity="1" style="transform:matrix(1, 0, 0, 1, 0, 76.5042);animation-play-state:paused" ></path>
<path d="M471.27 -25.402923104265028L471.27 0Z" stroke-width="13.66" stroke-linecap="round" stroke-linejoin="round" stroke="#ece3b2" transform="matrix(1,0,0,1,0,69.62175750732422)" opacity="1" style="transform:matrix(1, 0, 0, 1, 0, 69.6218);animation-play-state:paused" ></path>
<path d="M471.27 -40.3686480198412L471.27 0Z" stroke-width="13.66" stroke-linecap="round" stroke-linejoin="round" stroke="#79681e" transform="matrix(1,0,0,1,0,258.7155456542969)" opacity="1" style="transform:matrix(1, 0, 0, 1, 0, 258.716);animation-play-state:paused" ></path>
<path d="M471.27 -79.74433100469196L471.27 0Z" stroke-width="13.66" stroke-linecap="round" stroke-linejoin="round" stroke="#ece3b2" transform="matrix(1,0,0,1,0,380.296142578125)" opacity="0.39035" style="transform:matrix(1, 0, 0, 1, 0, 380.296);opacity:0.39035;animation-play-state:paused" ></path>
<path d="M498.59 -15.027608572123427L498.59 0Z" stroke-width="13.66" stroke-linecap="round" stroke-linejoin="round" stroke="#cbbe6c" transform="matrix(1,0,0,1,0,220.94638061523438)" opacity="1" style="transform:matrix(1, 0, 0, 1, 0, 220.946);animation-play-state:paused" ></path>
<path d="M498.59 -46.86827496530532L498.59 0Z" stroke-width="13.66" stroke-linecap="round" stroke-linejoin="round" stroke="#a49838" transform="matrix(1,0,0,1,0,254.26788330078125)" opacity="1" style="transform:matrix(1, 0, 0, 1, 0, 254.268);animation-play-state:paused" ></path>
<path d="M498.59 -58.01030529300624L498.59 0Z" stroke-width="13.66" stroke-linecap="round" stroke-linejoin="round" stroke="#faf7ed" transform="matrix(1,0,0,1,0,358.52606201171875)" opacity="0.65423" style="transform:matrix(1, 0, 0, 1, 0, 358.526);opacity:0.65423;animation-play-state:paused" ></path>
<path d="M525.9100000000001 -66.74184580639917L525.9100000000001 0Z" stroke-width="13.66" stroke-linecap="round" stroke-linejoin="round" stroke="#faf7ed" transform="matrix(1,0,0,1,0,159.34503173828125)" opacity="1" style="transform:matrix(1, 0, 0, 1, 0, 159.345);animation-play-state:paused" ></path>
<path d="M525.9100000000001 -42.132415806752306L525.9100000000001 0Z" stroke-width="13.66" stroke-linecap="round" stroke-linejoin="round" stroke="#79681e" transform="matrix(1,0,0,1,0,79.8903579711914)" opacity="1" style="transform:matrix(1, 0, 0, 1, 0, 79.8904);animation-play-state:paused" ></path>
<path d="M525.9100000000001 -52.46622914495765L525.9100000000001 0Z" stroke-width="13.66" stroke-linecap="round" stroke-linejoin="round" stroke="#cbbe6c" transform="matrix(1,0,0,1,0,25.923973083496094)" opacity="1" style="transform:matrix(1, 0, 0, 1, 0, 25.924);animation-play-state:paused" ></path>
<path d="M553.23 -12.56898762707715L553.23 0Z" stroke-width="13.66" stroke-linecap="round" stroke-linejoin="round" stroke="#79681e" transform="matrix(1,0,0,1,0,263.6595458984375)" opacity="1" style="transform:matrix(1, 0, 0, 1, 0, 263.66);animation-play-state:paused" ></path>
<path d="M553.23 -99.32423535208363L553.23 0Z" stroke-width="13.66" stroke-linecap="round" stroke-linejoin="round" stroke="#79681e" transform="matrix(1,0,0,1,0,370.92791748046875)" opacity="0.503904" style="transform:matrix(1, 0, 0, 1, 0, 370.928);opacity:0.503904;animation-play-state:paused" ></path>
<path d="M553.23 -4.578887652402045L553.23 0Z" stroke-width="13.66" stroke-linecap="round" stroke-linejoin="round" stroke="#a49838" transform="matrix(1,0,0,1,0,248.3356475830078)" opacity="1" style="transform:matrix(1, 0, 0, 1, 0, 248.336);animation-play-state:paused" ></path>
<path d="M580.5500000000001 -77.64841880485073L580.5500000000001 0Z" stroke-width="13.66" stroke-linecap="round" stroke-linejoin="round" stroke="#79681e" transform="matrix(1,0,0,1,0,165.45797729492188)" opacity="1" style="transform:matrix(1, 0, 0, 1, 0, 165.458);animation-play-state:paused" ></path>
<path d="M580.5500000000001 -54.288410055521126L580.5500000000001 0Z" stroke-width="13.66" stroke-linecap="round" stroke-linejoin="round" stroke="#a49838" transform="matrix(1,0,0,1,0,206.1629638671875)" opacity="1" style="transform:matrix(1, 0, 0, 1, 0, 206.163);animation-play-state:paused" ></path>
<path d="M580.5500000000001 -81.04777667133112L580.5500000000001 0Z" stroke-width="13.66" stroke-linecap="round" stroke-linejoin="round" stroke="#faf7ed" transform="matrix(1,0,0,1,0,259.48675537109375)" opacity="1" style="transform:matrix(1, 0, 0, 1, 0, 259.487);animation-play-state:paused" ></path>
<path d="M607.87 -28.552610652735893L607.87 0Z" stroke-width="13.66" stroke-linecap="round" stroke-linejoin="round" stroke="#ece3b2" transform="matrix(1,0,0,1,0,37.2638053894043)" opacity="1" style="transform:matrix(1, 0, 0, 1, 0, 37.2638);animation-play-state:paused" ></path>
<path d="M607.87 -24.447406462444633L607.87 0Z" stroke-width="13.66" stroke-linecap="round" stroke-linejoin="round" stroke="#faf7ed" transform="matrix(1,0,0,1,0,103.79315948486328)" opacity="1" style="transform:matrix(1, 0, 0, 1, 0, 103.793);animation-play-state:paused" ></path>
<path d="M607.87 -74.04083716117748L607.87 0Z" stroke-width="13.66" stroke-linecap="round" stroke-linejoin="round" stroke="#a49838" transform="matrix(1,0,0,1,0,239.6259002685547)" opacity="1" style="transform:matrix(1, 0, 0, 1, 0, 239.626);animation-play-state:paused" ></path>
<path d="M635.19 -37.263744270899224L635.19 0Z" stroke-width="13.66" stroke-linecap="round" stroke-linejoin="round" stroke="#faf7ed" transform="matrix(1,0,0,1,0,121.12750244140625)" opacity="1" style="transform:matrix(1, 0, 0, 1, 0, 121.128);animation-play-state:paused" ></path>
<path d="M635.19 -55.945796155455355L635.19 0Z" stroke-width="13.66" stroke-linecap="round" stroke-linejoin="round" stroke="#cbbe6c" transform="matrix(1,0,0,1,0,406.5614013671875)" opacity="0.071983" style="transform:matrix(1, 0, 0, 1, 0, 406.561);opacity:0.071983;animation-play-state:paused" ></path>
<path d="M635.19 -63.58701570061021L635.19 0Z" stroke-width="13.66" stroke-linecap="round" stroke-linejoin="round" stroke="#79681e" transform="matrix(1,0,0,1,0,231.67166137695312)" opacity="1" style="transform:matrix(1, 0, 0, 1, 0, 231.672);animation-play-state:paused" ></path>
<path d="M662.5100000000001 -51.29161347559966L662.5100000000001 0Z" stroke-width="13.66" stroke-linecap="round" stroke-linejoin="round" stroke="#faf7ed" transform="matrix(1,0,0,1,0,172.23294067382812)" opacity="1" style="transform:matrix(1, 0, 0, 1, 0, 172.233);animation-play-state:paused" ></path>
<path d="M662.5100000000001 -43.94441444615768L662.5100000000001 0Z" stroke-width="13.66" stroke-linecap="round" stroke-linejoin="round" stroke="#cbbe6c" transform="matrix(1,0,0,1,0,391.0086669921875)" opacity="0.260501" style="transform:matrix(1, 0, 0, 1, 0, 391.009);opacity:0.260501;animation-play-state:paused" ></path>
<path d="M662.5100000000001 -3.199737652668773L662.5100000000001 0Z" stroke-width="13.66" stroke-linecap="round" stroke-linejoin="round" stroke="#faf7ed" transform="matrix(1,0,0,1,0,39.90879821777344)" opacity="1" style="transform:matrix(1, 0, 0, 1, 0, 39.9088);animation-play-state:paused" ></path>
<path d="M689.83 -79.10609717108673L689.83 0Z" stroke-width="13.66" stroke-linecap="round" stroke-linejoin="round" stroke="#79681e" transform="matrix(1,0,0,1,0,268.80682373046875)" opacity="1" style="transform:matrix(1, 0, 0, 1, 0, 268.807);animation-play-state:paused" ></path>
<path d="M689.83 -13.98912417435713L689.83 0Z" stroke-width="13.66" stroke-linecap="round" stroke-linejoin="round" stroke="#faf7ed" transform="matrix(1,0,0,1,0,20.237001419067383)" opacity="1" style="transform:matrix(1, 0, 0, 1, 0, 20.237);animation-play-state:paused" ></path>
<path d="M689.83 -35.801362745107326L689.83 0Z" stroke-width="13.66" stroke-linecap="round" stroke-linejoin="round" stroke="#79681e" transform="matrix(1,0,0,1,0,127.24285888671875)" opacity="1" style="transform:matrix(1, 0, 0, 1, 0, 127.243);animation-play-state:paused" ></path>
<path d="M717.1500000000001 -68.86124824752551L717.1500000000001 0Z" stroke-width="13.66" stroke-linecap="round" stroke-linejoin="round" stroke="#a49838" transform="matrix(1,0,0,1,0,19.593666076660156)" opacity="1" style="transform:matrix(1, 0, 0, 1, 0, 19.5937);animation-play-state:paused" ></path>
<path d="M717.1500000000001 -51.697211517494L717.1500000000001 0Z" stroke-width="13.66" stroke-linecap="round" stroke-linejoin="round" stroke="#a49838" transform="matrix(1,0,0,1,0,15.901382446289062)" opacity="1" style="transform:matrix(1, 0, 0, 1, 0, 15.9014);animation-play-state:paused" ></path>
<path d="M717.1500000000001 -25.1096272071336L717.1500000000001 0Z" stroke-width="13.66" stroke-linecap="round" stroke-linejoin="round" stroke="#faf7ed" transform="matrix(1,0,0,1,0,317.3050537109375)" opacity="1" style="transform:matrix(1, 0, 0, 1, 0, 317.305);animation-play-state:paused" ></path>
<path d="M744.47 -69.95498625927576L744.47 0Z" stroke-width="13.66" stroke-linecap="round" stroke-linejoin="round" stroke="#cbbe6c" transform="matrix(1,0,0,1,0,293.1639709472656)" opacity="1" style="transform:matrix(1, 0, 0, 1, 0, 293.164);animation-play-state:paused" ></path>
<path d="M744.47 -71.27293375908266L744.47 0Z" stroke-width="13.66" stroke-linecap="round" stroke-linejoin="round" stroke="#ece3b2" transform="matrix(1,0,0,1,0,371.0121765136719)" opacity="0.502883" style="transform:matrix(1, 0, 0, 1, 0, 371.012);opacity:0.502883;animation-play-state:paused" ></path>
<path d="M744.47 -35.8709401451415L744.47 0Z" stroke-width="13.66" stroke-linecap="round" stroke-linejoin="round" stroke="#79681e" transform="matrix(1,0,0,1,0,267.6429138183594)" opacity="1" style="transform:matrix(1, 0, 0, 1, 0, 267.643);animation-play-state:paused" ></path>
<path d="M771.7900000000001 -68.97521896518992L771.7900000000001 0Z" stroke-width="13.66" stroke-linecap="round" stroke-linejoin="round" stroke="#cbbe6c" transform="matrix(1,0,0,1,0,79.87753295898438)" opacity="1" style="transform:matrix(1, 0, 0, 1, 0, 79.8775);animation-play-state:paused" ></path>
<path d="M771.7900000000001 -62.102946076644L771.7900000000001 0Z" stroke-width="13.66" stroke-linecap="round" stroke-linejoin="round" stroke="#faf7ed" transform="matrix(1,0,0,1,0,164.30056762695312)" opacity="1" style="transform:matrix(1, 0, 0, 1, 0, 164.301);animation-play-state:paused" ></path>
<path d="M771.7900000000001 -27.414268893884582L771.7900000000001 0Z" stroke-width="13.66" stroke-linecap="round" stroke-linejoin="round" stroke="#faf7ed" transform="matrix(1,0,0,1,0,358.6724548339844)" opacity="0.652455" style="transform:matrix(1, 0, 0, 1, 0, 358.672);opacity:0.652455;animation-play-state:paused" ></path>
<path d="M799.11 -18.540668907849067L799.11 0Z" stroke-width="13.66" stroke-linecap="round" stroke-linejoin="round" stroke="#79681e" transform="matrix(1,0,0,1,0,37.577842712402344)" opacity="1" style="transform:matrix(1, 0, 0, 1, 0, 37.5778);animation-play-state:paused" ></path>
<path d="M799.11 -45.865748616296514L799.11 0Z" stroke-width="13.66" stroke-linecap="round" stroke-linejoin="round" stroke="#79681e" transform="matrix(1,0,0,1,0,213.0563201904297)" opacity="1" style="transform:matrix(1, 0, 0, 1, 0, 213.056);animation-play-state:paused" ></path>
<path d="M799.11 -18.122931734211306L799.11 0Z" stroke-width="13.66" stroke-linecap="round" stroke-linejoin="round" stroke="#79681e" transform="matrix(1,0,0,1,0,302.9054260253906)" opacity="1" style="transform:matrix(1, 0, 0, 1, 0, 302.905);animation-play-state:paused" ></path>
<path d="M826.4300000000001 -21.982264406837203L826.4300000000001 0Z" stroke-width="13.66" stroke-linecap="round" stroke-linejoin="round" stroke="#ece3b2" transform="matrix(1,0,0,1,0,99.8047866821289)" opacity="1" style="transform:matrix(1, 0, 0, 1, 0, 99.8048);animation-play-state:paused" ></path>
<path d="M826.4300000000001 -52.688523416750286L826.4300000000001 0Z" stroke-width="13.66" stroke-linecap="round" stroke-linejoin="round" stroke="#faf7ed" transform="matrix(1,0,0,1,0,151.1080780029297)" opacity="1" style="transform:matrix(1, 0, 0, 1, 0, 151.108);animation-play-state:paused" ></path>
<path d="M826.4300000000001 -18.78964940457081L826.4300000000001 0Z" stroke-width="13.66" stroke-linecap="round" stroke-linejoin="round" stroke="#a49838" transform="matrix(1,0,0,1,0,251.37057495117188)" opacity="1" style="transform:matrix(1, 0, 0, 1, 0, 251.371);animation-play-state:paused" ></path>
<path d="M853.75 -49.95483046124991L853.75 0Z" stroke-width="13.66" stroke-linecap="round" stroke-linejoin="round" stroke="#a49838" transform="matrix(1,0,0,1,0,128.81112670898438)" opacity="1" style="transform:matrix(1, 0, 0, 1, 0, 128.811);animation-play-state:paused" ></path>
<path d="M853.75 -60.67380509432223L853.75 0Z" stroke-width="13.66" stroke-linecap="round" stroke-linejoin="round" stroke="#ece3b2" transform="matrix(1,0,0,1,0,348.7825012207031)" opacity="0.772334" style="transform:matrix(1, 0, 0, 1, 0, 348.783);opacity:0.772334;animation-play-state:paused" ></path>
<path d="M853.75 -24.98162513329271L853.75 0Z" stroke-width="13.66" stroke-linecap="round" stroke-linejoin="round" stroke="#ece3b2" transform="matrix(1,0,0,1,0,379.3851013183594)" opacity="0.401393" style="transform:matrix(1, 0, 0, 1, 0, 379.385);opacity:0.401393;animation-play-state:paused" ></path>
<path d="M881.07 -27.76940779796041L881.07 0Z" stroke-width="13.66" stroke-linecap="round" stroke-linejoin="round" stroke="#ece3b2" transform="matrix(1,0,0,1,0,223.96054077148438)" opacity="1" style="transform:matrix(1, 0, 0, 1, 0, 223.961);animation-play-state:paused" ></path>
<path d="M881.07 -65.76887108826395L881.07 0Z" stroke-width="13.66" stroke-linecap="round" stroke-linejoin="round" stroke="#faf7ed" transform="matrix(1,0,0,1,0,135.73779296875)" opacity="1" style="transform:matrix(1, 0, 0, 1, 0, 135.738);animation-play-state:paused" ></path>
<path d="M881.07 -75.60691204757313L881.07 0Z" stroke-width="13.66" stroke-linecap="round" stroke-linejoin="round" stroke="#ece3b2" transform="matrix(1,0,0,1,0,6.153593063354492)" opacity="1" style="transform:matrix(1, 0, 0, 1, 0, 6.15359);animation-play-state:paused" ></path>
<path d="M908.3900000000001 -0.6459078275584034L908.3900000000001 0Z" stroke-width="13.66" stroke-linecap="round" stroke-linejoin="round" stroke="#79681e" transform="matrix(1,0,0,1,0,179.57315063476562)" opacity="1" style="transform:matrix(1, 0, 0, 1, 0, 179.573);animation-play-state:paused" ></path>
<path d="M908.3900000000001 -43.08976999575316L908.3900000000001 0Z" stroke-width="13.66" stroke-linecap="round" stroke-linejoin="round" stroke="#79681e" transform="matrix(1,0,0,1,0,189.73316955566406)" opacity="1" style="transform:matrix(1, 0, 0, 1, 0, 189.733);animation-play-state:paused" ></path>
<path d="M908.3900000000001 -14.931771150346322L908.3900000000001 0Z" stroke-width="13.66" stroke-linecap="round" stroke-linejoin="round" stroke="#ece3b2" transform="matrix(1,0,0,1,0,306.93902587890625)" opacity="1" style="transform:matrix(1, 0, 0, 1, 0, 306.939);animation-play-state:paused" ></path>
<path d="M935.71 -34.137058759883075L935.71 0Z" stroke-width="13.66" stroke-linecap="round" stroke-linejoin="round" stroke="#a49838" transform="matrix(1,0,0,1,0,72.72676849365234)" opacity="1" style="transform:matrix(1, 0, 0, 1, 0, 72.7268);animation-play-state:paused" ></path>
<path d="M935.71 -29.23809136690761L935.71 0Z" stroke-width="13.66" stroke-linecap="round" stroke-linejoin="round" stroke="#79681e" transform="matrix(1,0,0,1,0,228.97042846679688)" opacity="1" style="transform:matrix(1, 0, 0, 1, 0, 228.97);animation-play-state:paused" ></path>
<path d="M935.71 -55.7568583737193L935.71 0Z" stroke-width="13.66" stroke-linecap="round" stroke-linejoin="round" stroke="#a49838" transform="matrix(1,0,0,1,0,296.088623046875)" opacity="1" style="transform:matrix(1, 0, 0, 1, 0, 296.089);animation-play-state:paused" ></path>
<path d="M963.0300000000001 -69.96162576817733L963.0300000000001 0Z" stroke-width="13.66" stroke-linecap="round" stroke-linejoin="round" stroke="#cbbe6c" transform="matrix(1,0,0,1,0,220.53118896484375)" opacity="1" style="transform:matrix(1, 0, 0, 1, 0, 220.531);animation-play-state:paused" ></path>
<path d="M963.0300000000001 -46.13879803432792L963.0300000000001 0Z" stroke-width="13.66" stroke-linecap="round" stroke-linejoin="round" stroke="#79681e" transform="matrix(1,0,0,1,0,330.0838317871094)" opacity="0.998984" style="transform:matrix(1, 0, 0, 1, 0, 330.084);opacity:0.998984;animation-play-state:paused" ></path>
<path d="M963.0300000000001 -45.504838683016715L963.0300000000001 0Z" stroke-width="13.66" stroke-linecap="round" stroke-linejoin="round" stroke="#79681e" transform="matrix(1,0,0,1,0,325.1191711425781)" opacity="1" style="transform:matrix(1, 0, 0, 1, 0, 325.119);animation-play-state:paused" ></path>
<path d="M990.35 -59.109875751262734L990.35 0Z" stroke-width="13.66" stroke-linecap="round" stroke-linejoin="round" stroke="#79681e" transform="matrix(1,0,0,1,0,286.94451904296875)" opacity="1" style="transform:matrix(1, 0, 0, 1, 0, 286.945);animation-play-state:paused" ></path>
<path d="M990.35 -24.705723602663056L990.35 0Z" stroke-width="13.66" stroke-linecap="round" stroke-linejoin="round" stroke="#cbbe6c" transform="matrix(1,0,0,1,0,391.49688720703125)" opacity="0.254583" style="transform:matrix(1, 0, 0, 1, 0, 391.497);opacity:0.254583;animation-play-state:paused" ></path>
<path d="M990.35 -39.576170023938175L990.35 0Z" stroke-width="13.66" stroke-linecap="round" stroke-linejoin="round" stroke="#79681e" transform="matrix(1,0,0,1,0,28.811967849731445)" opacity="1" style="transform:matrix(1, 0, 0, 1, 0, 28.812);animation-play-state:paused" ></path>
<path d="M1017.6700000000001 -28.383491904041875L1017.6700000000001 0Z" stroke-width="13.66" stroke-linecap="round" stroke-linejoin="round" stroke="#cbbe6c" transform="matrix(1,0,0,1,0,340.54876708984375)" opacity="0.872136" style="transform:matrix(1, 0, 0, 1, 0, 340.549);opacity:0.872136;animation-play-state:paused" ></path>
<path d="M1017.6700000000001 -19.377292798082635L1017.6700000000001 0Z" stroke-width="13.66" stroke-linecap="round" stroke-linejoin="round" stroke="#ece3b2" transform="matrix(1,0,0,1,0,20.08475112915039)" opacity="1" style="transform:matrix(1, 0, 0, 1, 0, 20.0848);animation-play-state:paused" ></path>
<path d="M1017.6700000000001 -52.415049551002085L1017.6700000000001 0Z" stroke-width="13.66" stroke-linecap="round" stroke-linejoin="round" stroke="#faf7ed" transform="matrix(1,0,0,1,0,395.60235595703125)" opacity="0.20482" style="transform:matrix(1, 0, 0, 1, 0, 395.602);opacity:0.20482;animation-play-state:paused" ></path>
<path d="M1044.99 -14.760622398629494L1044.99 0Z" stroke-width="13.66" stroke-linecap="round" stroke-linejoin="round" stroke="#79681e" transform="matrix(1,0,0,1,0,43.634376525878906)" opacity="1" style="transform:matrix(1, 0, 0, 1, 0, 43.6344);animation-play-state:paused" ></path>
<path d="M1044.99 -60.072697153012996L1044.99 0Z" stroke-width="13.66" stroke-linecap="round" stroke-linejoin="round" stroke="#ece3b2" transform="matrix(1,0,0,1,0,142.5816650390625)" opacity="1" style="transform:matrix(1, 0, 0, 1, 0, 142.582);animation-play-state:paused" ></path>
<path d="M1044.99 -48.58271636133213L1044.99 0Z" stroke-width="13.66" stroke-linecap="round" stroke-linejoin="round" stroke="#a49838" transform="matrix(1,0,0,1,0,232.28321838378906)" opacity="1" style="transform:matrix(1, 0, 0, 1, 0, 232.283);animation-play-state:paused" ></path>
<path d="M1072.31 -5.82931754089077L1072.31 0Z" stroke-width="13.66" stroke-linecap="round" stroke-linejoin="round" stroke="#ece3b2" transform="matrix(1,0,0,1,0,285.56005859375)" opacity="1" style="transform:matrix(1, 0, 0, 1, 0, 285.56);animation-play-state:paused" ></path>
<path d="M1072.31 -6.351520178843202L1072.31 0Z" stroke-width="13.66" stroke-linecap="round" stroke-linejoin="round" stroke="#faf7ed" transform="matrix(1,0,0,1,0,77.59683227539062)" opacity="1" style="transform:matrix(1, 0, 0, 1, 0, 77.5968);animation-play-state:paused" ></path>
<path d="M1072.31 -76.64810149023106L1072.31 0Z" stroke-width="13.66" stroke-linecap="round" stroke-linejoin="round" stroke="#a49838" transform="matrix(1,0,0,1,0,32.412437438964844)" opacity="1" style="transform:matrix(1, 0, 0, 1, 0, 32.4124);animation-play-state:paused" ></path>
<path d="M1099.6299999999999 -56.12844849667181L1099.6299999999999 0Z" stroke-width="13.66" stroke-linecap="round" stroke-linejoin="round" stroke="#faf7ed" transform="matrix(1,0,0,1,0,247.42271423339844)" opacity="1" style="transform:matrix(1, 0, 0, 1, 0, 247.423);animation-play-state:paused" ></path>
<path d="M1099.6299999999999 -58.07121603428186L1099.6299999999999 0Z" stroke-width="13.66" stroke-linecap="round" stroke-linejoin="round" stroke="#faf7ed" transform="matrix(1,0,0,1,0,381.34222412109375)" opacity="0.37767" style="transform:matrix(1, 0, 0, 1, 0, 381.342);opacity:0.37767;animation-play-state:paused" ></path>
<path d="M1099.6299999999999 -34.11276306316631L1099.6299999999999 0Z" stroke-width="13.66" stroke-linecap="round" stroke-linejoin="round" stroke="#ece3b2" transform="matrix(1,0,0,1,0,39.63193130493164)" opacity="1" style="transform:matrix(1, 0, 0, 1, 0, 39.6319);animation-play-state:paused" ></path>
<path d="M1126.95 -65.89288898520317L1126.95 0Z" stroke-width="13.66" stroke-linecap="round" stroke-linejoin="round" stroke="#79681e" transform="matrix(1,0,0,1,0,208.99903869628906)" opacity="1" style="transform:matrix(1, 0, 0, 1, 0, 208.999);animation-play-state:paused" ></path>
<path d="M1126.95 -21.26737088588925L1126.95 0Z" stroke-width="13.66" stroke-linecap="round" stroke-linejoin="round" stroke="#a49838" transform="matrix(1,0,0,1,0,222.98936462402344)" opacity="1" style="transform:matrix(1, 0, 0, 1, 0, 222.989);animation-play-state:paused" ></path>
<path d="M1126.95 -23.023412361773808L1126.95 0Z" stroke-width="13.66" stroke-linecap="round" stroke-linejoin="round" stroke="#a49838" transform="matrix(1,0,0,1,0,375.8705749511719)" opacity="0.443993" style="transform:matrix(1, 0, 0, 1, 0, 375.871);opacity:0.443993;animation-play-state:paused" ></path>
<path d="M1154.27 -17.32745194385643L1154.27 0Z" stroke-width="13.66" stroke-linecap="round" stroke-linejoin="round" stroke="#faf7ed" transform="matrix(1,0,0,1,0,184.07057189941406)" opacity="1" style="transform:matrix(1, 0, 0, 1, 0, 184.071);animation-play-state:paused" ></path>
<path d="M1154.27 -70.13677859962263L1154.27 0Z" stroke-width="13.66" stroke-linecap="round" stroke-linejoin="round" stroke="#cbbe6c" transform="matrix(1,0,0,1,0,223.1551513671875)" opacity="1" style="transform:matrix(1, 0, 0, 1, 0, 223.155);animation-play-state:paused" ></path>
<path d="M1154.27 -62.940314276602294L1154.27 0Z" stroke-width="13.66" stroke-linecap="round" stroke-linejoin="round" stroke="#a49838" transform="matrix(1,0,0,1,0,351.2428894042969)" opacity="0.742511" style="transform:matrix(1, 0, 0, 1, 0, 351.243);opacity:0.742511;animation-play-state:paused" ></path>
<path d="M1181.59 -28.145684284390867L1181.59 0Z" stroke-width="13.66" stroke-linecap="round" stroke-linejoin="round" stroke="#cbbe6c" transform="matrix(1,0,0,1,0,90.16738891601562)" opacity="1" style="transform:matrix(1, 0, 0, 1, 0, 90.1674);animation-play-state:paused" ></path>
<path d="M1181.59 -42.598854955474366L1181.59 0Z" stroke-width="13.66" stroke-linecap="round" stroke-linejoin="round" stroke="#faf7ed" transform="matrix(1,0,0,1,0,214.18426513671875)" opacity="1" style="transform:matrix(1, 0, 0, 1, 0, 214.184);animation-play-state:paused" ></path>
<path d="M1181.59 -51.65047207660115L1181.59 0Z" stroke-width="13.66" stroke-linecap="round" stroke-linejoin="round" stroke="#a49838" transform="matrix(1,0,0,1,0,294.9786376953125)" opacity="1" style="transform:matrix(1, 0, 0, 1, 0, 294.979);animation-play-state:paused" ></path>
<path d="M1208.9099999999999 -77.37651784911577L1208.9099999999999 0Z" stroke-width="13.66" stroke-linecap="round" stroke-linejoin="round" stroke="#ece3b2" transform="matrix(1,0,0,1,0,107.25850677490234)" opacity="1" style="transform:matrix(1, 0, 0, 1, 0, 107.259);animation-play-state:paused" ></path>
<path d="M1208.9099999999999 -50.739202992481296L1208.9099999999999 0Z" stroke-width="13.66" stroke-linecap="round" stroke-linejoin="round" stroke="#79681e" transform="matrix(1,0,0,1,0,187.19625854492188)" opacity="1" style="transform:matrix(1, 0, 0, 1, 0, 187.196);animation-play-state:paused" ></path>
<path d="M1208.9099999999999 -66.1685112848827L1208.9099999999999 0Z" stroke-width="13.66" stroke-linecap="round" stroke-linejoin="round" stroke="#ece3b2" transform="matrix(1,0,0,1,0,240.97804260253906)" opacity="1" style="transform:matrix(1, 0, 0, 1, 0, 240.978);animation-play-state:paused" ></path>
<path d="M1236.23 -59.29017276153172L1236.23 0Z" stroke-width="13.66" stroke-linecap="round" stroke-linejoin="round" stroke="#cbbe6c" transform="matrix(1,0,0,1,0,364.9103698730469)" opacity="0.576844" style="transform:matrix(1, 0, 0, 1, 0, 364.91);opacity:0.576844;animation-play-state:paused" ></path>
<path d="M1236.23 -25.67953632487479L1236.23 0Z" stroke-width="13.66" stroke-linecap="round" stroke-linejoin="round" stroke="#79681e" transform="matrix(1,0,0,1,0,5.291096210479736)" opacity="1" style="transform:matrix(1, 0, 0, 1, 0, 5.2911);animation-play-state:paused" ></path>
<path d="M1236.23 -46.0484819912308L1236.23 0Z" stroke-width="13.66" stroke-linecap="round" stroke-linejoin="round" stroke="#a49838" transform="matrix(1,0,0,1,0,189.0960235595703)" opacity="1" style="transform:matrix(1, 0, 0, 1, 0, 189.096);animation-play-state:paused" ></path>
<path d="M1263.55 -18.589225867504865L1263.55 0Z" stroke-width="13.66" stroke-linecap="round" stroke-linejoin="round" stroke="#79681e" transform="matrix(1,0,0,1,0,378.3564147949219)" opacity="0.413862" style="transform:matrix(1, 0, 0, 1, 0, 378.356);opacity:0.413862;animation-play-state:paused" ></path>
<path d="M1263.55 -14.659001744470515L1263.55 0Z" stroke-width="13.66" stroke-linecap="round" stroke-linejoin="round" stroke="#faf7ed" transform="matrix(1,0,0,1,0,66.6837158203125)" opacity="1" style="transform:matrix(1, 0, 0, 1, 0, 66.6837);animation-play-state:paused" ></path>
<path d="M1263.55 -31.896187385407757L1263.55 0Z" stroke-width="13.66" stroke-linecap="round" stroke-linejoin="round" stroke="#ece3b2" transform="matrix(1,0,0,1,0,165.20494079589844)" opacity="1" style="transform:matrix(1, 0, 0, 1, 0, 165.205);animation-play-state:paused" ></path>
<path d="M1290.87 -39.26177973748054L1290.87 0Z" stroke-width="13.66" stroke-linecap="round" stroke-linejoin="round" stroke="#faf7ed" transform="matrix(1,0,0,1,0,110.65843963623047)" opacity="1" style="transform:matrix(1, 0, 0, 1, 0, 110.658);animation-play-state:paused" ></path>
<path d="M1290.87 -68.89187258073434L1290.87 0Z" stroke-width="13.66" stroke-linecap="round" stroke-linejoin="round" stroke="#faf7ed" transform="matrix(1,0,0,1,0,370.5713806152344)" opacity="0.508226" style="transform:matrix(1, 0, 0, 1, 0, 370.571);opacity:0.508226;animation-play-state:paused" ></path>
<path d="M1290.87 -35.45501556539239L1290.87 0Z" stroke-width="13.66" stroke-linecap="round" stroke-linejoin="round" stroke="#cbbe6c" transform="matrix(1,0,0,1,0,39.14188003540039)" opacity="1" style="transform:matrix(1, 0, 0, 1, 0, 39.1419);animation-play-state:paused" ></path>
<path d="M1318.19 -63.05201088437025L1318.19 0Z" stroke-width="13.66" stroke-linecap="round" stroke-linejoin="round" stroke="#79681e" transform="matrix(1,0,0,1,0,89.81246948242188)" opacity="1" style="transform:matrix(1, 0, 0, 1, 0, 89.8125);animation-play-state:paused" ></path>
<path d="M1318.19 -54.95081722958639L1318.19 0Z" stroke-width="13.66" stroke-linecap="round" stroke-linejoin="round" stroke="#79681e" transform="matrix(1,0,0,1,0,163.59963989257812)" opacity="1" style="transform:matrix(1, 0, 0, 1, 0, 163.6);animation-play-state:paused" ></path>
<path d="M1318.19 -3.041782742850046L1318.19 0Z" stroke-width="13.66" stroke-linecap="round" stroke-linejoin="round" stroke="#79681e" transform="matrix(1,0,0,1,0,302.1918029785156)" opacity="1" style="transform:matrix(1, 0, 0, 1, 0, 302.192);animation-play-state:paused" ></path>
<path d="M1345.51 -46.52049663321304L1345.51 0Z" stroke-width="13.66" stroke-linecap="round" stroke-linejoin="round" stroke="#cbbe6c" transform="matrix(1,0,0,1,0,32.097862243652344)" opacity="1" style="transform:matrix(1, 0, 0, 1, 0, 32.0979);animation-play-state:paused" ></path>
<path d="M1345.51 -74.21761631051777L1345.51 0Z" stroke-width="13.66" stroke-linecap="round" stroke-linejoin="round" stroke="#cbbe6c" transform="matrix(1,0,0,1,0,160.01699829101562)" opacity="1" style="transform:matrix(1, 0, 0, 1, 0, 160.017);animation-play-state:paused" ></path>
<path d="M1345.51 -79.77283216347496L1345.51 0Z" stroke-width="13.66" stroke-linecap="round" stroke-linejoin="round" stroke="#cbbe6c" transform="matrix(1,0,0,1,0,127.35941314697266)" opacity="1" style="transform:matrix(1, 0, 0, 1, 0, 127.359);animation-play-state:paused" ></path></g></svg>