<?xml version="1.0" encoding="iso-8859-1"?>
<!-- Uploaded to: SVG Repo, www.svgrepo.com, Generator: SVG Repo Mixer Tools -->
<svg version="1.1" id="Layer_1" xmlns="http://www.w3.org/2000/svg" xmlns:xlink="http://www.w3.org/1999/xlink" 
	 viewBox="0 0 512 512" xml:space="preserve">
<rect x="178.961" y="113.675" style="fill:#4D3A2D;" width="34.133" height="22.756"/>
<path style="fill:#261D16;" d="M392.068,321.084l-114.475,34.871C425.151,417.303,499.127,402.596,512,370.947L392.068,321.084z"/>
<g>
	<path style="fill:#4D3A2D;" d="M196.033,125.05l81.559,230.902c71.34-11.712,114.475-34.868,114.475-34.868
		C392.068,212.817,304.3,125.05,196.033,125.05z"/>
	<path style="fill:#4D3A2D;" d="M0,321.084c0,0,43.134,23.156,114.474,34.868l81.559-230.902C87.767,125.05,0,212.817,0,321.084z"/>
</g>
<path style="fill:#735643;" d="M196.033,125.05c-45.023,0-81.525,103.361-81.559,230.902c24.148,3.965,51.524,6.621,81.559,6.621
	s57.41-2.656,81.559-6.621C277.559,228.412,241.056,125.05,196.033,125.05z"/>
</svg>